# xmcd CD database file
# Copyright (C) 1993-1998 Ti Kan
# 
# Track frame offsets:
#     150
#     20065
#     43805
#     70280
#     80307
#     103000
#     127670
#     132850
#     146572
#     164802
#     191685
#     215530
#     252855
#     280402
#     312925
# 
# Disc length: 4251 seconds
# 
# Revision: 1
# Processed by: cddbd v1.4b41PL1 Copyright (c) Steve Scherf et al.
# Submitted via: DiscPlay 4.0.4
# 
DISCID=e110990f
DTITLE=Carman - I Surrender All
DYEAR=1900
DGENRE=
TTITLE0=His Name is Wonderful
TTITLE1=Isn't He Wonderful/He Keeps me Singing/Since Jesus Came into My Hear
TTITLE2=The Old Rugged Cross/ Oh, The Blood of Jesus
TTITLE3=Jesus, Keep Me Near the Cross
TTITLE4=Peace Like a River/ I'm So Glad Jesus Lifted Me
TTITLE5=Grace Greater Than Our Sin/Amazing Grace
TTITLE6=Praise Him (When the Sun Goes Down)
TTITLE7=Jesus Paid it All
TTITLE8=Leaning on the Everlasting Arms
TTITLE9=Tell Me The Story of Jesus/ I Love to Tell the Story/ What a Friend 
TTITLE9=We Have in Jesus
TTITLE10=Nothing But the Blood/Are You Washed in the Blood/ He Took My Sins 
TTITLE10=Away
TTITLE11=My Jesus, I Love Thee/Jesus is the Sweetest Name I Know/ Oh, How I 
TTITLE11=Love Jesus
TTITLE12=When the Roll is Called up Yonder/ A New Name in Glory/ When We All
TTITLE12=Get to Heaven/ When the Saints Go Marching In
TTITLE13=Search Me, O God/I Surrender All
TTITLE14='Tis So Sweet to Trust in Jesus
EXTD=
EXTT0=
EXTT1=
EXTT2=
EXTT3=
EXTT4=
EXTT5=
EXTT6=
EXTT7=
EXTT8=
EXTT9=
EXTT10=
EXTT11=
EXTT12=
EXTT13=
EXTT14=
PLAYORDER=
